<svg version="1" xmlns="http://www.w3.org/2000/svg" width="1064" height="1064" viewBox="0 0 798.000000 798.000000"><path d="M476.5 53.6c-52 20.8-56.2 22.7-59.6 26.4-3 3.2-4.4 4-7.2 4s-4 .6-5.6 2.9c-1.4 1.9-3.5 3.2-6.8 4-4.5 1.2-26.7 10.4-28.8 12.1-.5.4-2.6 1.3-4.6 1.9-3.5 1.1-4.1 1-11.5-3.4-4.4-2.6-8-4.8-8.1-4.9-.2-.1.9-1.8 2.3-3.7l2.5-3.4-4.8-1.2c-8.3-2-9.3-1.8-9.3 1.9-.1 2.1-1.8 6.3-4.8 11.3-5.7 9.6-8.3 10.7-13.6 5.7-1.7-1.6-4.6-3.7-6.5-4.7l-3.4-1.7.7-7.2c.6-7-.6-13.6-2.4-13.6-2.4 0-5.8 2.1-6.2 3.8-.4 1.2-1.7 2.1-3.9 2.5-1.9.3-4.9.9-6.6 1.3l-3.3.6V73.3l-3.7-.6c-2.1-.4-7.1-.9-11-1.3l-7.3-.7v5.2c0 2.8-.3 5.1-.6 5.1-.4 0-2.7-1.6-5.1-3.6l-4.5-3.7-9.3 4.4c-9.7 4.6-10.5 5.4-10.5 11.6 0 1.7-.4 3.4-1 3.8-.5.3-3.9-.1-7.6-1-3.7-.8-6.9-1.3-7.1-1.1-.3.3-.9 5.3-1.3 11.1-.5 5.9-1.1 10.9-1.4 11.2-1.7 1.8-16.2 4.5-23.8 4.4h-8.7l-1.7 5.2c-.9 2.9-2 5.6-2.5 6.1-.5.6-.9 2.7-.9 4.7s-.7 5.5-1.5 7.8c-.9 2.6-1.2 5.8-.9 8.5.4 2.9.1 5.2-1 7.3-.8 1.7-1.8 4.9-2.2 7.2-.7 4.6-4.3 7.9-9.8 9-3.1.7-3.1.8-3.7 7.9-.9 10-2.5 11.7-8.3 8.7-3.9-2-6.6-1.9-6.6.3 0 2.5-2.8 6.2-4.7 6.2-.9 0-3.4-1.9-5.6-4.2l-4-4.2.7 4.5c1 7.2-.3 10.2-5.2 11.7-2.3.8-4.2 2-4.2 2.7 0 .7-1 1.9-2.2 2.7l-2.1 1.4 1.8 7.2c2 8.3 1.3 10.2-3.7 10.2-4.8 0-9.5-2.6-12.3-6.8-2.5-3.7-2.9-4-5.7-3.1-5.6 1.6-6.9 3.5-6.2 9.4 1 7.9-2.2 12.5-8.6 12.5-3 0-4 .5-4.5 2-1.2 3.7-6.5 1.8-6.5-2.3 0-1.1 1.1-3.2 2.5-4.9 3.4-4 3.4-7.8 0-7.8-2.8 0-3 1-4 15.3-.5 8.7-.5 8.7 2.1 9.7 1.4.6 3.5 1 4.8 1 3.1 0 6.1 3.5 8 9.4.9 2.6 3 6.8 4.7 9.2 1.6 2.4 3.7 6.3 4.5 8.6.8 2.4 3.2 6.1 5.4 8.3 2.1 2.2 4.8 6.1 5.9 8.6 1.1 2.5 2.9 5.4 4.1 6.4 1.1 1 2 2.4 2 3.1 0 .7.9 1.5 2 1.9 1.1.3 3.2 1.9 4.7 3.6 2 2 3.7 2.9 6 2.9s3.7.7 4.8 2.4c1.5 2.2 1.4 4.4-1.2 26.8l-2.8 24.3-5.8-.3c-4.3-.3-5.7 0-5.7 1 0 .7-1.1 10.1-2.5 20.8-3.3 26.2-3.7 23.8 3.3 24.2 5 .3 5.7.5 5.5 2.3-.1 1.1-8.6 79.1-18.9 173.3-10.3 94.1-18.5 171.4-18.3 171.5.2.2 11.7-.5 25.4-1.5 23.5-1.7 36.1-3.7 214.2-32.8 104.1-17.1 189.7-31 190.2-31s7.4-7.1 15.2-15.8c12-13.3 14.6-15.7 16.8-15.5 1.4.2 22.1 2.5 46 5.3 23.9 2.7 44.2 5 45.2 5 1.2 0 1.6-.5 1.3-1.4-1-2.7 1.6-5.6 7.9-8.8 4.1-2.1 7.7-3.2 10.8-3.2 4.3-.1 5 .3 11.3 6.1 5.2 4.9 7.4 6.3 9.8 6.3 3 0 3-.1 2.5-3.6-.3-2-2.8-8.4-5.6-14.3-5.6-12.1-6.8-16.5-5.1-18.6 2.4-2.9 6.7-1.8 12.1 3.1 9.3 8.2 17.4 10 30.7 6.5 10.7-2.8 11.5-2.7 15.6 1.4 2 1.9 4 3.5 4.6 3.5 1.6 0 14.4-7.6 15.9-9.4 2.6-3.1.4-5.4-7.2-7.6-23.7-7-24.5-7.2-25.5-9.4-1.6-3.5.3-6.4 6-9.1 2.9-1.4 6.8-3.6 8.7-5 4.3-3.2 6.1-2.7 12.9 3.7 6.8 6.4 8.6 6.1 9-1.2.5-7.9-1.1-12.3-6.1-16.5l-4.2-3.7-9.2.6-9.2.5-2.1-2.8c-2.4-3.4-2.6-7.5-.5-12.4.8-2 1.5-4.7 1.5-6.1 0-2.8 3.2-5.2 8.4-6.2 2.1-.3 5.1-1.8 6.8-3.2 2.9-2.5 3-2.8 2.4-8.4-.8-7.9-1.7-9.2-8-12.2-6.4-3-8.2-3.2-14.5-.9-6.1 2.1-10.7 1.2-15.4-3.1-4.9-4.5-5-8-.2-13.2 2.4-2.6 3.5-4.8 3.5-6.8 0-4.5 2.5-14.2 4.3-16.9.9-1.5 3-2.7 5.1-3.1 6.5-1.2 10.2-13 6.6-21.6-1.4-3.3-2.8-3.9-11-4.2-6.9-.4-7.5-2.2-3-8.4 1.8-2.6 3-5.3 2.8-6.7-.3-1.9-.8-2.2-3.8-1.9-10.9.9-11.5.8-11.8-1.5-.2-1.2 1.1-5 2.9-8.4 2.8-5.7 3.1-6.9 2.6-12.9-.5-7-4.2-17-6.2-17-2.3 0-7.7-6.2-10.3-11.8-2.8-6.1-3.3-13.2-1.8-25.7 1.1-8.9 3.7-13.5 12.2-21.5 9-8.4 14.4-10.7 27.9-12.1 6-.6 11.8-1.4 12.9-1.9 4.3-1.6 12.5-9.2 14.5-13.3 1.9-3.9 1.9-4.6.6-10.2-2.3-10-7.1-12.6-30.5-16.1-14.9-2.3-28.1-2.9-33.7-1.5-7.6 2-14.6 5.7-29.6 16.1-12.6 8.6-15.6 10.2-26.6 13.9-14.6 5-21.7 6.3-26.3 5-4.2-1.1-16-12.4-18.7-17.8-1.6-3-2.1-5.9-2.1-11.3 0-12.9 4.4-18.4 18-22.4 6.5-2 12-6.9 12-10.8 0-1.5-2.9-6.8-7.2-13.2l-7.2-10.6-.2-8.8c-.2-9.9-1.1-12.3-5.6-14.6-2.9-1.5-3.8-1.5-11.5.1-8 1.5-8.5 1.5-11.6-.2-1.8-1-4-3.5-5-5.5-2.4-5-1.3-7.5 8.3-17.5 9-9.3 10-12.4 5.5-16.8-6.6-6.7-18.2 1.7-26.7 19.5-3.4 6.9-4.3 10.1-5 17.5-.5 4.9-1.4 9.5-2.1 10.3-2.8 3.4-8.7 3.4-12.1-.1-3.9-3.9-7.2-16.4-6.4-24.1.3-2.5 3.1-9.6 6.7-16.9 8.5-17.1 9.3-26.4 2.7-32.6-5.3-5-12.5-3.6-22.9 4.3-2.6 2-6.8 5.2-9.3 7.1-2.5 1.9-5.7 3.5-7 3.5-6.5 0-17.5-8.8-18.9-15.1-.7-2.9 1.3-10.6 3.8-15.5 2.9-5.5 14.2-15.3 22.1-19 6.3-3 9.2-3.7 17.3-4.4 11-.9 12.9-1.5 14.3-4.1 1.6-2.9 1.2-4.8-1.7-7.6-1.6-1.4-5.8-5.5-9.5-9.2l-6.8-6.6-10.5-.5c-9.6-.5-10.7-.8-13-3.1-2.2-2.2-2.6-3.4-2.6-8.8-.1-10 2.6-13 16.5-18.2 3.4-1.2 8-4 10.5-6.4 2.6-2.3 6.2-5.2 8.1-6.5 8.1-5.4 14-12.5 14-16.8 0-1.7-3-5.4-4.1-5.1-.2.1-25.6 10.2-56.4 22.5zm6 150.9c9.3 1.9 21.9 8.3 27.8 14 12.8 12.3 13.8 32.2 2.1 42.5-2.9 2.5-4.3 3-8.5 3-6.3 0-10.8-1.9-14.2-5.9-3.2-3.9-3.3-4.3-.6-9.8 2.4-4.9 3.4-11 2.5-14.7-.9-3.8-5.4-8.4-11-11.4-4.8-2.5-5.9-2.7-17.6-2.7-11.6 0-12.9.2-18.1 2.8-11.2 5.5-19.6 17.4-23.8 33.9-3.6 13.9-4.5 23.6-4.5 46.8.1 31.9 3.6 50.3 12.2 63.6 4.6 7.1 8.9 10.9 16.2 14.3 7.2 3.3 22.3 4.1 32.1 1.7 9.8-2.4 23.5-9.7 30.6-16 3.3-3.1 6.3-5.6 6.6-5.6.2 0 2.6 2.5 5.3 5.7l4.8 5.6-5.9 5.5c-13.4 12.1-27.3 20-40.5 22.8-9.2 2-30.5 1.4-39.5-1-28.2-7.6-44.4-29.2-49.9-66.9-1.9-12.4-2.1-43.8-.5-57.2 5.4-44.3 25.8-67.8 62.9-72.5 8.1-1.1 22.4-.4 31.5 1.5zM221.1 284c20.2 49.3 32.7 78.5 33.2 77.7.5-.6 14.7-36.1 31.6-78.7l30.8-77.5 28.3-.3 28.2-.2-.6 2.2c-.3 1.3-.6 3.7-.6 5.3 0 3-.1 3.1-8.7 4.8-4.8 1-10.9 2.8-13.5 3.9l-4.8 2v158.7l5.5 2c3 1.1 9.4 2.8 14.1 3.8l8.6 1.6-.6 3c-.3 1.6-.6 4-.6 5.3v2.4h-81.8l.5-4.8c.3-2.6.8-5 1.2-5.4.3-.4 4-1.4 8.1-2.2 4.1-.9 9.9-2.5 12.8-3.7l5.2-2.1-.1-68.2v-68.1l-3.7 9.5c-2.1 5.2-15.5 40-29.7 77.3l-26 67.7-8.9-.2-8.9-.3-30.3-76.5c-16.7-42.1-30.8-77.4-31.3-78.5-.6-1.3-1 22.1-1 67.6l-.1 69.6 5.4 2.1c3 1.1 9.3 2.8 14 3.8 9.4 1.8 9.5 1.9 8 9.3l-.6 3.1h-36.9c-41.2 0-37.6.7-36.3-7.1l.6-3.6 7.9-1.6c4.3-.8 10.3-2.7 13.4-4.1l5.5-2.5V223.9l-5.2-2.4c-2.9-1.3-9.2-3.2-14-4.1-9.6-1.9-9.6-1.9-8.2-9.3l.7-3.1h56.3l32.5 79zM413 447.5c12.2 2.1 27.6 7.6 32.6 11.6.7.6.3 6.8-1.2 20.6-1.3 10.9-2.3 20.3-2.3 20.9-.1 1.4-6.1 2.4-10.4 1.7-3.1-.5-3.4-.8-5-7.2-3.9-15.1-11.4-25.9-21-30.2-4.5-2.1-6.8-2.4-16.7-2.4-10.3 0-12.1.3-17.1 2.6-12.4 5.8-18.3 14.7-18.2 27.6 0 11.7 5.7 20.7 19.8 31.4 2.9 2.2 14.3 8.7 25.5 14.5 24.8 12.9 29.7 16.1 38.6 25.7 13.8 14.8 18.3 31.9 13.4 51.1-2.7 10.7-6.2 16.6-14.2 24.2-12.9 12.1-27 17.3-49.8 18.1-12.3.4-16.1.2-24.8-1.6-12.2-2.5-27.9-8-33.3-11.6L325 642v-51l2.3-.5c1.2-.3 4.6-.7 7.6-.8l5.4-.2 2.3 13c1.2 7.1 3.7 17.4 5.5 22.8 3.2 9.9 3.2 9.9 7.8 11.9 11.1 4.8 32.3 6.4 43.2 3.2 6.2-1.8 14.5-7.1 17.6-11.2 5.5-7.4 6.8-11.3 6.8-20.7 0-11.7-2-17.1-9.4-24.9-7.4-7.7-13-11.4-34.6-22.5-22-11.4-29.4-16.2-36.7-23.9-11.7-12.2-15.9-22.4-15.9-38.2 0-16.2 4.3-26.2 15.7-37 7.6-7.1 17.5-12.3 27.5-14.4 8.7-1.9 32.2-2 42.9-.1zm162.5 3.4c53.1 9.9 76.7 41 76.8 101.1 0 18.4-1.2 29-4.9 41.8-8.9 31.2-29.8 50.1-63.9 58-15.1 3.5-25.4 4.2-67.2 4.2H476v-2.3c0-1.2.3-3.8.6-5.7l.6-3.5 9-1.8c5-.9 11.2-2.7 13.9-3.8l4.9-2.1V467.9l-4.2-1.8c-4.5-1.9-14.5-4.5-21.5-5.6-3.7-.6-4.2-1-3.9-2.8.3-1.2.8-3.9 1.1-6.1l.6-3.8 43.7.5c38.4.4 45 .8 54.7 2.6z"/><path d="M534 551.9v87.9l6.8.4c8.6.6 25-.7 32.7-2.7 32.6-8.3 47.5-35.2 47.5-85.5 0-63.1-22.2-88-78.5-88H534v87.9z"/></svg>